<svg width="295" height="207" viewBox="0 0 295 207" fill="none" xmlns="http://www.w3.org/2000/svg">
<path d="M197.691 63.8355C196.337 62.7743 191.248 62.6675 189.487 62.7518C184.138 63.0115 178.687 63.4623 173.333 63.858C159.752 64.8563 146.746 67.8646 133.328 69.3372C124.271 70.3355 115.684 69.8454 106.628 71.7688C100.099 73.1572 97.904 73.952 96.0199 80.7004C94.8968 84.7238 93.6051 93.3001 93.8704 97.3798C94.0795 100.579 96.7315 101.566 99.4002 102.446C108.191 105.341 117.067 105.47 126.207 105.685C130.795 105.786 135.415 105.708 139.992 106.052C146.492 106.537 153.122 108.298 159.634 108.24C178.141 108.082 185.95 97.4292 192.597 81.7492C194.464 77.3369 196.512 71.8857 197.387 67.18C197.488 66.6606 197.973 64.0536 197.691 63.8344V63.8355ZM173.694 84.6788C160.496 84.9104 147.688 88.3234 134.608 89.9771C132.882 90.1974 131.138 90.547 129.4 90.7044C127.521 90.8798 124.012 91.2856 122.274 91.0765C120.067 90.8112 119.91 87.849 121.964 87.2903C126.471 86.5742 131.009 86.0773 135.522 85.4118C138.462 84.9779 141.413 84.5765 144.347 84.1033C153.471 82.6306 163.785 79.8887 172.965 80.1136C173.061 80.1136 173.332 80.2833 173.597 80.2946C175.227 80.3789 178.708 79.8719 178.985 82.2304C179.335 85.1645 175.459 84.6507 173.692 84.6788H173.694Z" fill="#D71F28"/>
<path d="M185.934 26.0442C184.827 26.4196 183.545 26.7445 182.463 27.1447L173.878 1.38877C177.596 2.84232 179.734 8.44183 181.14 11.9369C182.99 16.5393 184.51 21.2979 185.932 26.043L185.934 26.0442Z" fill="#63CDFF"/>
<path d="M193.787 57.647L184.289 31.3446C184.733 31.1254 187.112 30.0192 187.387 30.2564C188.756 35.9616 191.649 40.9766 193.187 46.648C194.263 50.6119 195.037 53.6235 193.787 57.647Z" fill="#63CDFF"/>
<path d="M164.928 0.110582C166.764 5.8686 169.444 11.3298 170.684 17.279C171.169 19.6038 171.406 21.9589 171.686 24.3152L171.87 30.6151C169.95 31.0614 164.652 32.3103 163.106 31.0681C161.994 30.1755 163.446 26.2386 161.175 25.8767C159.146 25.5529 158.682 26.7827 158.54 28.5162C158.189 32.7589 160.018 35.5502 164.383 35.9099C164.236 40.1784 163.461 44.5031 164.039 48.7649C165.232 57.548 172.97 56.7532 179.725 55.0895L179.907 59.1084C177.145 59.2635 174.356 59.2781 171.598 59.476C155.875 60.6035 140.566 64.5943 124.745 65.5016L125.11 60.9352C127.93 61.9244 137.226 60.9824 140.03 59.6896C144.693 57.5402 145.229 50.5264 145.392 46.0567C145.479 43.6971 145.319 41.3161 145.377 38.9553C147.64 38.0829 149.386 37.6411 150.534 35.3085C151.388 33.5761 151.777 30.2531 151.602 28.3251C151.333 25.3224 148.062 25.4472 147.618 27.826C147.324 29.3987 147.58 32.8162 146.181 33.8774C145.231 34.598 141.659 35.0398 140.361 35.1815C131.993 36.0909 123.295 35.3816 114.881 36.2787C114.095 34.9251 112.526 34.2304 111.738 32.7544C110.523 30.4779 111.187 25.0391 110.839 22.1466C109.64 12.2089 104.156 11.0151 97.8073 5.40545C97.4285 5.07044 96.89 4.66011 96.7978 4.13175C106.838 1.76986 118.98 1.96322 129.4 1.38989C141.187 0.741237 153.092 -0.354824 164.928 0.112832V0.110582Z" fill="#14B4FF"/>
<path d="M96.7978 4.12951C96.89 4.65787 97.4285 5.06819 97.8073 5.40319C104.156 11.0139 109.64 12.2078 110.839 22.1444C111.187 25.038 110.523 30.4757 111.738 32.7521C112.526 34.2282 114.095 34.9229 114.881 36.2764C114.086 36.3607 113.554 36.3022 112.73 36.5912C110.202 37.477 110.778 40.3875 113.328 40.6607C115.06 40.8462 117.621 40.5595 119.448 40.4774C119.828 41.1059 120.276 41.7219 120.909 42.121C120.078 47.1989 118.943 58.77 125.11 60.934L124.745 65.5004C117.547 65.913 111.192 66.0816 104.103 67.7814C96.1728 69.6824 93.9896 72.1657 91.7031 79.8606C91.6322 80.1001 91.8391 80.3766 91.4119 80.2934C85.7191 73.4079 77.7161 64.3144 77.0731 54.995C76.5447 47.3349 79.0078 35.2714 80.4164 27.473C82.5635 15.5905 83.7181 7.20413 96.7978 4.12726V4.12951Z" fill="#169CE7"/>
<path d="M182.463 27.1447C178.912 28.4544 175.586 29.7494 171.871 30.6151L171.687 24.3152C171.406 21.9578 171.168 19.6038 170.683 17.2779C169.445 11.3287 166.763 5.86973 164.927 0.110587C167.51 0.214011 171.503 0.460197 173.878 1.38877L182.463 27.1447Z" fill="#63CDFF"/>
<path d="M193.79 58.3777C191.436 58.2461 189.114 58.3687 186.759 58.562C184.445 58.7531 182.232 58.978 179.906 59.1095L179.725 55.0895C182.926 54.3014 184.812 53.8978 185.333 50.1993C186.025 45.3282 184.886 38.1223 184.268 33.1006C184.202 32.5475 183.992 32.0068 183.915 31.4526C183.918 31.2311 184.202 31.3874 184.29 31.3435L193.788 57.6458C193.735 57.8246 193.832 58.1618 193.792 58.3777H193.79Z" fill="#63CDFF"/>
<path d="M119.448 40.4774C119.471 40.4774 119.655 40.3065 119.889 40.2874C120.347 40.2515 120.817 40.3212 121.273 40.2953C121.371 40.3864 120.954 41.8467 120.909 42.121C120.276 41.7219 119.828 41.1047 119.448 40.4774Z" fill="#14B4FF"/>
<path d="M244.498 162.792C246.841 162.987 249.774 169.684 250.928 172.105C252.375 175.106 252.968 178.4 255.666 177.723C258.231 176.81 261.969 171.993 260.444 169.406C259.046 166.97 255.584 165.498 253.588 163.377C246.625 157.232 248.442 147.281 250.65 139.189C253.034 129.804 255.335 120.645 256.725 111.085C258.413 102.316 262.18 81.4142 274.853 86.9062C279.175 88.9084 282.958 92.3862 285.649 96.2821C288.258 100.232 289.493 104.912 291.371 109.354C292.638 112.711 297.663 123.154 293.163 125.278C291.956 125.78 290.054 125.605 287.976 125.442C285.979 125.283 283.898 125.209 281.988 124.652C279.764 124.153 277.166 122.281 275.062 122.233C272.011 122.392 271.696 127.294 271.899 129.663C272.135 131.815 273.252 133.625 275.194 134.426C278.814 135.921 283.238 133.699 286.71 133.782C291.235 133.796 293.421 137.761 293.82 142.245C294.267 147.092 293.188 152.586 291.381 156.986C287.985 164.808 281.328 175.477 274.982 180.927C264.919 189.179 253.381 190.837 242.274 197.454C236.122 201.021 229.891 204.249 222.916 206.155C218.902 207.269 214.164 206.65 215.734 201.847C217.168 198.036 220.43 194.975 222.898 191.785C229.435 183.687 235.835 174.614 241.099 165.973C241.9 164.726 243.069 162.738 244.458 162.79L244.498 162.792Z" fill="url(#paint0_linear_27_2)"/>
<path d="M177.061 187.744C175.314 193.297 175.317 196.226 168.948 197.137C164.609 197.794 158.059 201.511 154.667 197.255C153.717 195.943 153.541 194.196 153.517 192.158C153.496 190.29 153.512 188.494 153.422 186.395C153.151 182.527 152.956 176.387 149.173 174.87C147.263 174.19 144.994 175.088 143.599 176.523C137.766 182.398 144.069 196.115 140.753 199.573C138.215 201.787 133.654 200.935 130.431 200.867C126.998 200.469 123.886 201.383 120.422 201.403C116.113 201.356 112.211 199.095 113.64 194.164C114.088 192.302 114.927 190.464 115.668 188.688C120.457 177.561 123.477 164.998 125.685 153.282C126.711 148.592 126.944 144.267 126.663 139.395C126.475 133.298 126.451 125.052 133.008 122.463C140.394 119.767 148.432 119.493 156.111 118.708C161.089 118.201 166.683 117.938 171.264 119.992C179.055 123.581 181.203 132.93 179.4 140.806C178.046 146.682 174.37 153.959 172.344 159.049C171.231 161.558 171.973 163.585 174.04 165.253C175.982 166.96 178.592 168.239 179.758 170.572C181.869 174.88 178.369 183.129 177.084 187.665L177.06 187.742L177.061 187.744ZM148.862 138.514C146.307 139.158 146.509 147.588 147.011 150.127C148.856 159.613 161.419 144.692 160.208 140.077C159.715 137.879 151.638 137.814 148.862 138.514Z" fill="url(#paint1_linear_27_2)"/>
<path d="M120.746 126.563C119.371 117.373 93.6639 115.087 86.8251 118.39C76.5735 123.341 77.224 137.805 79.1695 148.624C81.4499 161.207 92.8544 160.418 106.563 163.022C115.186 164.078 117.084 162.849 119.434 156.085C122.861 146.216 121.929 134.473 120.746 126.565V126.563ZM105.96 144.539C105.235 146.626 104.649 147.005 101.989 146.68C97.761 145.876 94.2422 146.12 93.5387 142.238C92.9387 138.902 92.7376 134.439 95.8998 132.912C98.0091 131.893 105.939 132.599 106.363 135.433C106.728 137.873 107.016 141.495 105.959 144.539H105.96Z" fill="url(#paint2_linear_27_2)"/>
<path d="M40.6725 157.527C39.0727 156.587 37.5668 155.422 36.1261 154.206C33.9468 152.515 31.5942 149.692 30.051 150.065C28.8644 150.826 29.1728 153.376 29.321 155.667C29.5185 157.693 29.9908 159.729 30.8629 161.599C31.7303 163.978 35.3262 167.912 34.2842 169.249C33.9011 169.715 32.9386 169.812 31.705 169.642C28.9259 169.23 25.7865 167.911 23.5567 165.935C19.8259 162.696 18.2984 157.514 17.9683 152.699C17.5744 147.472 18.8092 142.408 20.6908 137.675C21.7569 135.262 22.9435 132.025 25.701 131.56C29.7209 131.485 30.7666 137.916 33.0976 140.51C35.5623 144.102 44.3575 147.981 45.8211 142.484C46.9102 134.587 43.7094 123.322 42.7601 112.441C42.5144 110.22 42.2819 107.744 41.4832 105.77C40.3496 102.737 37.4922 100.794 34.807 99.3732C28.0874 95.54 21.7461 95.4039 16.089 100.326C13.2412 102.75 11.3138 106.054 9.32128 109.291C6.85776 113.318 4.34003 117.236 2.92938 121.828C-6.06699 150.542 6.13497 183.926 32.9831 191.791C41.7374 194.356 48.9665 204.006 57.84 206.495C61.2901 207.412 64.8487 206.59 64.1331 202.174C63.9476 200.809 63.4272 199.325 62.9248 197.98C58.7652 187.394 52.0311 176.812 48.4268 165.964C46.4283 160.681 44.949 159.993 40.7507 157.574L40.6749 157.529L40.6725 157.527Z" fill="url(#paint3_linear_27_2)"/>
<path d="M74.8257 115.979C72.9898 112.461 66.8015 112.9 62.9984 111.846C61.6227 111.552 60.2325 111.148 58.9231 110.699C57.0209 110.162 54.6959 108.87 53.001 110.167C51.8867 111.084 51.4687 113.612 51.2301 115.322C49.652 126.557 51.8493 137.693 54.5598 148.611C55.8885 153.868 57.1595 159.068 58.4689 164.281C60.2807 171.307 62.5262 178.344 67.2063 184.095C71.0588 189.008 76.611 190.929 82.3271 192.717C89.7189 195.34 97.3359 198.887 105.442 199.492C112.641 200.029 107.604 196.209 108.922 193.017C111.016 187.944 115.074 180.881 114.954 175.303C114.909 173.217 114.076 171.008 112.344 169.57C110.256 167.837 107.462 167.518 104.736 167.059C101.908 166.686 78.8951 166.106 76.9845 164.346C68.6784 155.751 69.6638 133.576 73.7138 122.359C74.3463 120.347 75.6124 118.014 74.8462 116.029L74.8257 115.981V115.979Z" fill="url(#paint4_linear_27_2)"/>
<path d="M185.015 118.362C184.288 119.651 184.379 121.335 184.552 122.842C185.651 133.553 186.455 144.226 185.878 154.991C185.388 160.624 185.821 166.269 185.613 171.907C185.014 179.471 182.236 186.526 179.799 193.695C179.246 195.419 178.343 197.818 180.6 198.097C182.003 198.243 183.583 197.821 184.99 197.537C187.904 196.925 190.663 196.171 193.505 195.705C194.504 195.537 195.592 195.337 196.499 194.948C198.329 194.228 198.997 192.436 199.374 190.597C199.751 188.757 200.219 186.819 200.761 184.976C201.778 181.479 203.077 177.561 203.853 175.53C204.419 174.011 204.93 173.567 205.49 176.005C206.362 179.779 206.851 184.059 208.083 187.838C208.928 190.785 210.372 192.152 213.745 190.934C216.063 190.328 218.161 189.047 219.023 186.688C220.393 181.82 222.728 177.906 225.993 173.56C227.926 170.703 230.263 167.777 231.327 164.519C232.38 160.414 226.204 159.271 224.057 157.006C221.244 154.355 224.073 152.088 226.192 149.715C230.215 145.595 235.212 141.925 238.882 137.415C241.592 133.981 242.799 129.802 244.552 125.658C246.823 119.792 249.036 113.471 250.451 107.366C253.178 95.2449 251.486 90.3973 238.779 96.0604C230.635 99.419 222.186 100.218 218.473 109.303C216.373 114.213 215.65 117.704 214.246 123.193C213.214 127.354 211.739 133.306 210.678 137.12C210.157 138.861 209.946 139.985 209.455 140.403C208.922 140.388 208.877 138.857 208.731 138.202C207.709 130.7 208.222 121.676 206.074 113.719C204.416 107.809 200.199 109.648 195.91 112.045C194.253 112.905 192.589 113.694 190.917 114.443C188.633 115.535 186.235 116.23 185.049 118.304L185.017 118.363L185.015 118.362Z" fill="url(#paint5_linear_27_2)"/>
<defs>
<linearGradient id="paint0_linear_27_2" x1="215.356" y1="93.7044" x2="215.356" y2="198.127" gradientUnits="userSpaceOnUse">
<stop stop-color="#14B4FF"/>
<stop offset="1" stop-color="#17A1EE"/>
</linearGradient>
<linearGradient id="paint1_linear_27_2" x1="215.356" y1="93.7044" x2="215.356" y2="198.127" gradientUnits="userSpaceOnUse">
<stop stop-color="#14B4FF"/>
<stop offset="1" stop-color="#17A1EE"/>
</linearGradient>
<linearGradient id="paint2_linear_27_2" x1="215.356" y1="93.7044" x2="215.356" y2="198.127" gradientUnits="userSpaceOnUse">
<stop stop-color="#14B4FF"/>
<stop offset="1" stop-color="#17A1EE"/>
</linearGradient>
<linearGradient id="paint3_linear_27_2" x1="215.356" y1="93.7044" x2="215.356" y2="198.127" gradientUnits="userSpaceOnUse">
<stop stop-color="#14B4FF"/>
<stop offset="1" stop-color="#17A1EE"/>
</linearGradient>
<linearGradient id="paint4_linear_27_2" x1="215.356" y1="93.7044" x2="215.356" y2="198.127" gradientUnits="userSpaceOnUse">
<stop stop-color="#14B4FF"/>
<stop offset="1" stop-color="#17A1EE"/>
</linearGradient>
<linearGradient id="paint5_linear_27_2" x1="215.356" y1="93.7044" x2="215.356" y2="198.127" gradientUnits="userSpaceOnUse">
<stop stop-color="#14B4FF"/>
<stop offset="1" stop-color="#17A1EE"/>
</linearGradient>
</defs>
</svg>
